<svg width="20" height="20" viewBox="0 0 20 20" fill="none" xmlns="http://www.w3.org/2000/svg">
<path d="M12.5005 18.3334V15.0001C12.6164 13.9562 12.3171 12.9085 11.6671 12.0834C14.1671 12.0834 16.6671 10.4167 16.6671 7.50008C16.7338 6.45841 16.4421 5.43341 15.8338 4.58341C16.0671 3.62508 16.0671 2.62508 15.8338 1.66675C15.8338 1.66675 15.0005 1.66675 13.3338 2.91675C11.1338 2.50008 8.86715 2.50008 6.66715 2.91675C5.00048 1.66675 4.16715 1.66675 4.16715 1.66675C3.91715 2.62508 3.91715 3.62508 4.16715 4.58341C3.56037 5.42998 3.26587 6.46074 3.33381 7.50008C3.33381 10.4167 5.83381 12.0834 8.33381 12.0834C8.00881 12.4917 7.76714 12.9584 7.62548 13.4584C7.48381 13.9584 7.44215 14.4834 7.50048 15.0001V18.3334" stroke="#A1A1AA" stroke-width="1.66667" stroke-linecap="round" stroke-linejoin="round"/>
<path d="M7.50033 14.9999C3.74199 16.6666 3.33366 13.3333 1.66699 13.3333" stroke="#A1A1AA" stroke-width="1.66667" stroke-linecap="round" stroke-linejoin="round"/>
</svg>
